<svg width="431" height="52" xmlns="http://www.w3.org/2000/svg"><path d="M211.62 1h44.88c1.652 0 2.756 1.334 2.464 2.992l-7.92 44.88c-.292 1.652-1.862 2.992-3.52 2.992h-44.88c-1.653 0-2.757-1.334-2.464-2.992l7.92-44.88C208.392 2.34 209.962 1 211.62 1zm1.968 29.49l1.433-8.117h11.77l2.149-12.176h8.388l-2.15 12.176h11.771l-1.432 8.118h-11.77l-2.15 12.176h-8.387l2.149-12.176h-11.77zM.628 15h11.376l-.36 15.984a208.15 208.15 0 01-.36 5.364c-.144 1.8-.264 3.612-.36 5.436h.288c.672-1.824 1.32-3.648 1.944-5.472.624-1.824 1.32-3.6 2.088-5.328L21.796 15h9.792l.36 15.984a80.057 80.057 0 01-.036 5.364c-.072 1.8-.108 3.612-.108 5.436h.288a84.643 84.643 0 001.8-5.436 74.05 74.05 0 011.8-5.364L41.452 15h10.656L37.132 51H23.74V37.608c.096-1.68.144-3.36.144-5.04 0-1.68.048-3.504.144-5.472h-.288a500.414 500.414 0 00-1.836 5.472c-.552 1.68-1.14 3.36-1.764 5.04L14.956 51H1.996L.628 15zm51.048 23.616c0-3.408.528-6.6 1.584-9.576 1.056-2.976 2.472-5.568 4.248-7.776 1.776-2.208 3.816-3.948 6.12-5.22 2.304-1.272 4.704-1.908 7.2-1.908 1.536 0 3 .396 4.392 1.188 1.392.792 2.424 1.884 3.096 3.276h.144l1.584-3.6h9.216l-7.2 36H72.7v-4.464h-.144c-1.584 1.68-3.348 2.988-5.292 3.924-1.944.936-3.78 1.404-5.508 1.404-3.168 0-5.64-1.14-7.416-3.42-1.776-2.28-2.664-5.556-2.664-9.828zm15.264 3.888c.96 0 2.016-.3 3.168-.9 1.152-.6 2.208-1.884 3.168-3.852l2.304-11.52c-.432-.96-1.02-1.656-1.764-2.088-.744-.432-1.452-.648-2.124-.648-1.056 0-2.064.336-3.024 1.008-.96.672-1.812 1.608-2.556 2.808-.744 1.2-1.344 2.64-1.8 4.32-.456 1.68-.684 3.528-.684 5.544 0 1.872.3 3.228.9 4.068.6.84 1.404 1.26 2.412 1.26zm30.528-18.576H92.86l1.728-8.496L99.772 15l3.168-9.216h9.648L110.86 15h7.776l-1.728 8.928h-8.064l-2.736 13.536a5.511 5.511 0 00-.144 1.188v1.116c0 2.112 1.152 3.168 3.456 3.168.768 0 1.632-.24 2.592-.72l2.016 8.064c-1.008.384-2.268.744-3.78 1.08-1.512.336-3.276.504-5.292.504-1.92 0-3.564-.252-4.932-.756-1.368-.504-2.484-1.2-3.348-2.088a8.188 8.188 0 01-1.908-3.168c-.408-1.224-.612-2.58-.612-4.068 0-.816.06-1.608.18-2.376.12-.768.252-1.56.396-2.376l2.736-13.104zm20.88 12.96c0-3.024.54-5.904 1.62-8.64 1.08-2.736 2.592-5.148 4.536-7.236a22.478 22.478 0 016.84-5.004c2.616-1.248 5.484-1.872 8.604-1.872 2.304 0 4.296.468 5.976 1.404 1.68.936 2.952 1.956 3.816 3.06l-6.336 6.768c-.672-.672-1.32-1.176-1.944-1.512-.624-.336-1.368-.504-2.232-.504a6.622 6.622 0 00-3.6 1.044c-1.104.696-2.064 1.656-2.88 2.88-.816 1.224-1.452 2.652-1.908 4.284-.456 1.632-.684 3.36-.684 5.184 0 1.824.432 3.264 1.296 4.32.864 1.056 2.16 1.584 3.888 1.584 1.104 0 2.028-.204 2.772-.612a15.482 15.482 0 002.124-1.404l4.752 7.056c-1.392 1.008-3.06 1.956-5.004 2.844-1.944.888-4.356 1.332-7.236 1.332-2.016 0-3.9-.336-5.652-1.008a13.19 13.19 0 01-4.572-2.916c-1.296-1.272-2.316-2.832-3.06-4.68-.744-1.848-1.116-3.972-1.116-6.372zm40.896-36h11.52l-2.448 11.664-1.728 6.336h.288c1.44-1.296 3.084-2.412 4.932-3.348 1.848-.936 3.852-1.404 6.012-1.404 2.976 0 5.136.78 6.48 2.34 1.344 1.56 2.016 3.9 2.016 7.02 0 .816-.036 1.668-.108 2.556a14.035 14.035 0 01-.468 2.628L181.276 51h-11.52l4.176-20.88c.144-.672.276-1.26.396-1.764s.18-.972.18-1.404c0-1.008-.264-1.764-.792-2.268-.528-.504-1.272-.756-2.232-.756-1.008 0-1.992.324-2.952.972-.96.648-2.088 1.668-3.384 3.06L160.684 51h-11.52L159.244.888zm118.584 0h11.52l-7.776 38.592c-.096.384-.144.66-.144.828v.54c0 .672.144 1.14.432 1.404.288.264.624.396 1.008.396h.612c.168 0 .396-.048.684-.144L283.732 51c-.672.24-1.5.444-2.484.612-.984.168-2.124.252-3.42.252-2.976 0-5.088-.708-6.336-2.124-1.248-1.416-1.872-3.348-1.872-5.796 0-.72.036-1.464.108-2.232.072-.768.228-1.656.468-2.664l7.632-38.16zm11.808 35.424c0-3.312.6-6.324 1.8-9.036 1.2-2.712 2.772-5.04 4.716-6.984 1.944-1.944 4.128-3.456 6.552-4.536 2.424-1.08 4.836-1.62 7.236-1.62 2.208 0 4.068.36 5.58 1.08 1.512.72 2.736 1.704 3.672 2.952.936 1.248 1.62 2.7 2.052 4.356.432 1.656.648 3.42.648 5.292 0 .912-.084 1.824-.252 2.736-.168.912-.36 1.764-.576 2.556a27.895 27.895 0 01-.648 2.088c-.216.6-.396 1.02-.54 1.26h-19.44c.096 2.4.84 4.128 2.232 5.184 1.392 1.056 3.144 1.584 5.256 1.584 1.008 0 2.064-.24 3.168-.72s2.064-1.008 2.88-1.584l4.032 7.2c-1.44 1.008-3.288 1.884-5.544 2.628-2.256.744-4.872 1.116-7.848 1.116-2.208 0-4.224-.36-6.048-1.08-1.824-.72-3.396-1.752-4.716-3.096-1.32-1.344-2.352-2.976-3.096-4.896-.744-1.92-1.116-4.08-1.116-6.48zm22.608-6.768c.096-.288.168-.636.216-1.044.048-.408.072-.828.072-1.26 0-1.248-.288-2.28-.864-3.096-.576-.816-1.632-1.224-3.168-1.224-1.392 0-2.736.528-4.032 1.584-1.296 1.056-2.352 2.736-3.168 5.04h10.944zm13.68 9.072c0-3.408.528-6.6 1.584-9.576 1.056-2.976 2.472-5.568 4.248-7.776 1.776-2.208 3.816-3.948 6.12-5.22 2.304-1.272 4.704-1.908 7.2-1.908 1.536 0 3 .396 4.392 1.188 1.392.792 2.424 1.884 3.096 3.276h.144l1.584-3.6h9.216l-7.2 36h-9.36v-4.464h-.144c-1.584 1.68-3.348 2.988-5.292 3.924-1.944.936-3.78 1.404-5.508 1.404-3.168 0-5.64-1.14-7.416-3.42-1.776-2.28-2.664-5.556-2.664-9.828zm15.264 3.888c.96 0 2.016-.3 3.168-.9 1.152-.6 2.208-1.884 3.168-3.852l2.304-11.52c-.432-.96-1.02-1.656-1.764-2.088-.744-.432-1.452-.648-2.124-.648-1.056 0-2.064.336-3.024 1.008-.96.672-1.812 1.608-2.556 2.808-.744 1.2-1.344 2.64-1.8 4.32-.456 1.68-.684 3.528-.684 5.544 0 1.872.3 3.228.9 4.068.6.84 1.404 1.26 2.412 1.26zM371.716 15h9.36l-.288 7.056h.288c1.392-2.304 3.06-4.2 5.004-5.688 1.944-1.488 3.924-2.232 5.94-2.232 1.008 0 1.812.06 2.412.18.6.12 1.092.3 1.476.54l-3.744 9.936c-.528-.288-1.14-.456-1.836-.504a27.918 27.918 0 00-1.908-.072c-1.536 0-2.964.504-4.284 1.512-1.32 1.008-2.676 2.712-4.068 5.112L376.18 51h-11.52l7.056-36zm28.8 0h9.36v4.608h.288a33.059 33.059 0 015.508-3.816 13.08 13.08 0 016.444-1.656c2.976 0 5.136.78 6.48 2.34 1.344 1.56 2.016 3.9 2.016 7.02 0 1.632-.192 3.36-.576 5.184L425.572 51h-11.52l4.176-20.88c.144-.672.276-1.26.396-1.764s.18-.972.18-1.404c0-1.008-.264-1.764-.792-2.268-.528-.504-1.272-.756-2.232-.756-1.008 0-1.992.324-2.952.972-.96.648-2.088 1.668-3.384 3.06L404.98 51h-11.52l7.056-36z" fill="#FFF" fill-rule="evenodd"/></svg>